<?xml version="1.0" encoding="UTF-8"?><svg id="mountain_contour" xmlns="http://www.w3.org/2000/svg" viewBox="0 0 198.43 141.73"><defs><style>.cls-1{fill:#1d1d1b;}</style></defs><g><path class="cls-1" d="m63.91,79.93c-2.05-2.7-4.98-4.03-8.32-4.03-5.53,0-10.18,4.1-10.18,10.05s4.42,10.01,10.31,10.01c3.25,0,6.02-1.33,8.19-3.87l1.85,1.4c-2.41,3.02-5.95,4.62-10.21,4.62-7.8,0-12.58-5.5-12.58-12.36s5.33-12.13,12.58-12.13c4.29,0,7.9,1.69,10.21,4.91l-1.85,1.4Z"/><path class="cls-1" d="m70.57,74.21h5.37c2.44,0,4.29.16,5.43.58,2.41.91,3.84,2.99,3.84,5.63,0,1.17-.16,1.85-.68,2.89-1.2,2.44-3.54,3.38-7.41,3.38l8.42,10.86h-2.89l-8.39-10.86h-1.33v10.86h-2.34v-23.35Zm2.34,2.28v7.93c1.3,0,2.63.03,3.87.03,2.02,0,3.58-.19,4.58-1.01.85-.68,1.4-1.82,1.4-3.02,0-2.28-1.56-3.94-5.07-3.94h-4.78Z"/><path class="cls-1" d="m90.21,74.21h13.33v2.28h-10.99v7.32h10.99v2.28h-10.99v9.2h10.99v2.28h-13.33v-23.35Z"/><path class="cls-1" d="m116.57,78.89c-1.27-1.66-2.37-2.86-4.29-2.86-2.02,0-3.15,1.43-3.15,2.96,0,1.27.75,2.6,2.08,3.61,4.39,3.25,7.61,5.5,7.61,9.27,0,3.28-2.76,6.28-6.57,6.28-3.22,0-5.33-1.79-7.06-4.94l1.98-1.2c1.4,2.57,3.09,3.87,4.88,3.87,2.44,0,4.32-1.79,4.32-3.97,0-2.57-2.41-4.03-7.71-8.32-1.11-.88-1.98-2.73-1.98-4.49,0-3.22,2.5-5.46,5.66-5.46,2.86,0,4.58,1.72,6.11,3.8l-1.89,1.46Z"/><path class="cls-1" d="m121.48,76.49v-2.28h12.81v2.28h-5.2v21.07h-2.34v-21.07h-5.27Z"/><path class="cls-1" d="m144.56,74.21l10.89,23.35h-2.5l-3.67-7.67h-10.08l-3.64,7.67h-2.6l11.06-23.35h.55Zm-.29,4.94l-4.03,8.45h8l-3.97-8.45Z"/></g><g><path class="cls-1" d="m115.54,64.25c-.32-.06-.65-.09-.96-.19-.46-.13-.75-.43-1.12-.71-.66-.52-1.41-.66-2.23-.66-.91,0-1.8.12-2.59-.43-.78-.55-1.48-1.08-2.39-1.42-.87-.33-1.75-.39-2.66-.51-.44-.06-.86-.16-1.24-.41-.39-.26-.72-.6-1.12-.85-.77-.46-1.65-.69-2.5-.95-.95-.29-1.77-.71-2.58-1.27-.76-.53-1.48-1.1-2.31-1.52-.84-.43-1.73-.74-2.66-.91-.4-.07-.82-.1-1.22-.21-.52-.15-.69-.44-.88-.91-.31-.74-.8-1.09-1.6-1.19-.4-.05-.72-.07-1.05-.32-.34-.26-.61-.61-.86-.95-.37-.49-.77-1.36-1.43-1.48-.82-.14-1.13.72-1.55,1.23-.61.73-1.33,1.37-2.04,2.01-.33.3-.65.68-1,1.02-.85-.26-1.55-.7-2.34-1.08-.4-.19-.8-.28-1.24-.28-.49,0-.98.07-1.44-.12-.41-.16-.63-.47-.94-.76-.28-.26-.61-.45-.98-.56-.71-.2-1.47-.19-2.2-.23-.06,0-.12,0-.17.02-.55-.21-1.18-.15-1.72.09-.92.41-1.66,1.2-2.46,1.79-.81.6-1.65,1.17-2.51,1.69-2,1.22-4.12,2.22-6.33,3-.6.21-.34,1.18.27.96,3.63-1.28,7.02-3.14,10.04-5.53.6-.47,1.69-1.6,2.52-.99.53.39.5,1.3.88,1.82.55.75,1.52.41,2.09,1.06.69.79,1.35,1.62,1.93,2.49,1.02,1.54,1.61,3.55,3.35,4.47.57.3,1.08-.56.5-.86-1.02-.53-1.61-1.56-2.16-2.6,0,0,0-.02,0-.03,0-.66.09-1.44.54-1.96.55-.64,1.61-.54,2.29-1.01.57-.4,1.02-.99,1.53-1.46.6-.55,1.22-1.09,1.78-1.68.23-.24.44-.49.65-.75-.02.79-.03,1.58.06,2.36.05.44.1.89.38,1.26.53.7,1.45.93,2.08,1.51.73.68.93,1.62,1.5,2.39.48.65,1.17,1.08,1.84,1.52,1.58,1.03,2.65,2.48,2.98,4.36.11.63,1.07.36.96-.27-.28-1.62-1.12-3.14-2.38-4.2-.65-.55-1.43-.92-2.08-1.47-.76-.64-.95-1.55-1.5-2.33-.49-.69-1.13-1.15-1.85-1.57-.62-.36-.86-.58-.93-1.28-.09-.83-.08-1.68-.05-2.52.12.19.23.38.32.51.24.32.48.63.76.91.41.39.86.65,1.42.73.4.05.85.01,1.1.39.22.34.27.75.54,1.07.46.55,1.16.69,1.83.79.94.14,1.86.37,2.72.79,1.57.75,2.81,2.05,4.44,2.69.77.3,1.58.47,2.35.77.82.31,1.35.92,2.09,1.34.67.38,1.43.42,2.17.5.97.11,1.89.37,2.73.87.82.48,1.45,1.2,2.43,1.37.89.16,1.82-.07,2.7.13.85.19,1.35.99,2.19,1.25.63.2,1.69.09,2.12.67.38.51,1.25.01.86-.5-.42-.58-.99-.8-1.68-.92Zm-39.29-8.67c-.2.29-.33.62-.42.96-.05-.08-.1-.16-.15-.24-.6-.87-1.26-1.71-1.95-2.5-.26-.3-.55-.54-.94-.65-.49-.13-.93,0-1.18-.52-.16-.33-.25-.69-.38-1.01.43.02.86.06,1.25.2.39.15.6.5.9.76.3.26.65.45,1.03.56.86.26,1.75-.06,2.56.39.54.3,1.08.56,1.64.78-.06.03-.11.06-.17.08-.86.3-1.64.38-2.19,1.19Z"/><path class="cls-1" d="m141.63,54.19c-.93-1.17-2.52-.99-3.83-1.3-1.86-.44-3.61-1.48-5.32-2.3-.81-.38-1.66-.73-2.43-1.19-.75-.45-1.04-1.03-1.36-1.81-.23-.55-.5-1.12-1.03-1.45-.66-.41-1.45-.24-2.17-.48-.71-.23-1.31-.71-1.92-1.13-.55-.37-1.22-.89-1.9-.95-.36-.03-.57.12-.85.3-.37.24-.71.28-1.15.25-.75-.06-1.48-.29-2.24-.17-1.53.23-2.47,1.59-3.3,2.76-.44.61-.88,1.23-1.44,1.74-.71.65-1.57.95-2.49,1.2-.84.23-1.69.44-2.46.87-.81.45-1.5,1.09-2.41,1.32-1.2.31-2.53.45-3.77.46-1.05-.06-2.05-.38-2.93-.97-.78-.52-1.33-1.34-2.15-1.79-.32-.18-.67-.28-1.03-.3-.48-.03-1.04.21-1.51.07-.38-.11-.6-.59-.95-.79-.36-.21-.79-.26-1.21-.24-1.01.04-1.85.16-2.83-.2-.99-.36-1.83-.99-2.74-1.52-.75-.43-1.51-.56-2.31-.18-.72.34-1.32,1.1-2.19.97-.47-.07-.9-.26-1.38-.23-.44.02-.82.21-1.19.44-.27.17-.75.58-1.11.4-.29-.14-.18-.63-.54-.81-.65-.33-1.8.39-2.35.71-.39.24-.75.52-1.1.82-.29.25-.51.4-.92.34-.22-.03-.46-.09-.66-.19-.98-.5-2.05-2.32-3.22-1.06-.26.28-.5.56-.8.81-.23.19-.71.64-1.06.6-.02-.02-.05-.05-.08-.11-.07-.13-.15-.25-.22-.38-.14-.23-.28-.51-.5-.68-.65-.51-1.88.4-2.47.7-1.06.56-2.08,1.17-3.09,1.8-2.06,1.28-4.08,2.61-6.28,3.63-.58.27-.08,1.13.5.86,1.89-.88,3.66-1.99,5.42-3.09.89-.56,1.78-1.11,2.69-1.64.45-.26.9-.51,1.36-.75.2-.1.39-.2.59-.3.13-.06.27-.12.4-.19,0,0,.32-.22.28-.22.11.02.37.61.43.71.12.19.24.4.43.52.61.38,1.38-.04,1.88-.41.29-.21.57-.45.83-.7.2-.2.39-.63.7-.57.28.05.6.43.81.62.25.23.51.46.79.64.76.49,1.83.6,2.58.05.41-.31.78-.67,1.22-.94.26-.16.89-.57,1.3-.64.05.18.08.36.25.52.24.23.58.34.91.36.34.02.67-.06.97-.22.43-.22.84-.64,1.35-.66.48,0,.94.24,1.42.26.43.02.84-.11,1.22-.3.76-.4,1.4-1.21,2.33-.8.93.41,1.73,1.1,2.67,1.52.87.39,1.8.64,2.76.57.43-.03.89-.15,1.33-.08.49.08.66.53,1.05.78.87.56,1.88-.13,2.75.33.46.24.81.67,1.19,1.02.38.35.78.67,1.23.94.97.58,2.05.88,3.17.94,1.12-.01,2.27-.17,3.37-.36.57-.1,1.1-.24,1.62-.51.71-.37,1.32-.91,2.05-1.24,1.47-.67,3.12-.71,4.43-1.74,1.23-.97,1.89-2.4,2.95-3.53.53-.56,1.14-1,1.94-1,.77,0,1.51.28,2.28.22.32-.03.64-.1.92-.27.39-.22.59-.27.99-.06.68.35,1.28.85,1.93,1.26.17.1.34.19.51.28-.25.18-.5.36-.72.58-.25.24-.46.51-.65.8-.2.3-.36.83-.54,1.03-.36.4-1.04.65-1.51.91-.49.28-.95.51-1.21,1.04-.15.31-.34.72-.39,1.06-.04.37.14.73.09,1.1-.06.4-.37.8-.56,1.16-.11.21-.21.49-.37.67-.29.33-.89.26-1.29.27-.91.02-1.67.05-2.22.85-.57.83-1.12,1.42-2.1,1.77-.95.35-1.97.46-2.97.55-.64.06-.64,1.06,0,1,1.65-.15,3.45-.35,4.79-1.42.32-.25.59-.55.82-.88.11-.16.2-.36.32-.51.26-.32.57-.35.97-.35.62-.01,1.38.05,1.95-.24.42-.21.64-.59.85-.99.38-.72.9-1.39.81-2.24-.02-.16-.08-.34-.08-.5,0-.2.09-.36.17-.55.14-.35.2-.49.51-.67.57-.35,1.18-.63,1.74-1.01.68-.46.79-1.19,1.29-1.81.4-.5.96-.81,1.43-1.22.06.01.13.03.19.04.34.04.75,0,1.07.13.41.16.6.54.77.92.04.08.07.17.11.26-.57.73-1.13,1.5-1.53,2.34-.43.9-.35,1.61-.25,2.55.1.92.04,1.85-.23,2.74-.14.44-.4.79-.6,1.2-.52,1.05-.99,2.31-.89,3.5.07.8.51,1.41,1.02,2,.26.3.57.65.94.83.57.29,1.08-.58.5-.86-.41-.21-.74-.66-1.01-1.02-.49-.67-.53-1.29-.35-2.1.15-.67.39-1.32.7-1.93.26-.51.55-.94.7-1.51.27-.99.32-2.03.19-3.05-.07-.54-.14-.72-.06-1.19.15-.88.78-1.77,1.34-2.49.07.12.16.24.25.36.5.59,1.2.95,1.89,1.27,1.85.89,3.69,1.83,5.58,2.62.86.36,1.71.58,2.63.7.83.11,1.73.16,2.29.86.4.5,1.1-.21.71-.71Z"/></g></svg>